<?xml version="1.0" encoding="utf-8" standalone="no"?>
<!DOCTYPE svg PUBLIC "-//W3C//DTD SVG 1.1//EN"
  "http://www.w3.org/Graphics/SVG/1.1/DTD/svg11.dtd">
<!-- Created with matplotlib (http://matplotlib.org/) -->
<svg height="288pt" version="1.1" viewBox="0 0 432 288" width="432pt" xmlns="http://www.w3.org/2000/svg" xmlns:xlink="http://www.w3.org/1999/xlink">
 <defs>
  <style type="text/css">
*{stroke-linecap:butt;stroke-linejoin:round;}
  </style>
 </defs>
 <g id="figure_1">
  <g id="patch_1">
   <path d="M 0 288 
L 432 288 
L 432 0 
L 0 0 
z
" style="fill:#ffffff;"/>
  </g>
  <g id="axes_1">
   <g id="patch_2">
    <path d="M 54 252 
L 388.8 252 
L 388.8 34.56 
L 54 34.56 
z
" style="fill:#ffffff;"/>
   </g>
   <g id="matplotlib.axis_1">
    <g id="xtick_1">
     <g id="line2d_1">
      <defs>
       <path d="M 0 0 
L 0 3.5 
" id="mddd11246c8" style="stroke:#000000;stroke-width:0.8;"/>
      </defs>
      <g>
       <use style="stroke:#000000;stroke-width:0.8;" x="69.218182" xlink:href="#mddd11246c8" y="252"/>
      </g>
     </g>
     <g id="text_1">
      <!-- 1.00 -->
      <defs>
       <path d="M 21.484375 0.78125 
L 21.484375 31.25 
L 21.484375 61.328125 
L 9.765625 61.328125 
L 9.765625 66.015625 
Q 23.4375 66.015625 25.78125 76.953125 
L 30.46875 76.953125 
L 30.46875 0.78125 
z
" id="MS-Gothic-31"/>
       <path d="M 17.1875 9.375 
L 17.1875 0.78125 
L 8.203125 0.78125 
L 8.203125 9.375 
z
" id="MS-Gothic-2e"/>
       <path d="M 3.125 39.0625 
Q 3.125 62.109375 12.5 71.484375 
Q 17.96875 76.953125 24.609375 76.953125 
Q 31.25 76.953125 36.71875 71.484375 
Q 46.09375 62.109375 46.09375 39.0625 
Q 46.09375 15.625 36.71875 6.25 
Q 31.25 0.78125 24.609375 0.78125 
Q 17.96875 0.78125 12.5 6.25 
Q 3.125 15.625 3.125 39.0625 
z
M 37.109375 39.0625 
Q 37.109375 59.765625 29.6875 67.1875 
Q 27.34375 69.53125 24.609375 69.53125 
Q 21.875 69.53125 19.53125 67.1875 
Q 12.109375 59.375 12.109375 39.0625 
Q 12.109375 17.96875 19.53125 10.546875 
Q 21.875 8.203125 24.609375 8.203125 
Q 27.34375 8.203125 29.6875 10.546875 
Q 37.109375 17.96875 37.109375 39.0625 
z
" id="MS-Gothic-30"/>
      </defs>
      <g transform="translate(59.218182 266.695312)scale(0.1 -0.1)">
       <use xlink:href="#MS-Gothic-31"/>
       <use x="50" xlink:href="#MS-Gothic-2e"/>
       <use x="100" xlink:href="#MS-Gothic-30"/>
       <use x="150" xlink:href="#MS-Gothic-30"/>
      </g>
     </g>
    </g>
    <g id="xtick_2">
     <g id="line2d_2">
      <g>
       <use style="stroke:#000000;stroke-width:0.8;" x="107.263636" xlink:href="#mddd11246c8" y="252"/>
      </g>
     </g>
     <g id="text_2">
      <!-- 1.25 -->
      <defs>
       <path d="M 44.53125 8.203125 
L 44.53125 0.78125 
L 4.6875 0.78125 
L 4.6875 7.03125 
Q 13.671875 23.828125 26.953125 39.0625 
Q 34.375 47.65625 34.375 57.03125 
Q 34.375 63.671875 30.859375 67.1875 
Q 28.515625 69.53125 24.609375 69.53125 
Q 21.484375 69.53125 18.359375 66.40625 
Q 14.84375 62.890625 14.84375 51.953125 
L 6.25 51.953125 
Q 6.640625 66.015625 12.890625 72.265625 
Q 17.578125 76.953125 25.390625 76.953125 
Q 32.8125 76.953125 37.890625 71.875 
Q 43.359375 66.40625 43.359375 56.640625 
Q 43.359375 45.3125 32.8125 33.203125 
Q 21.484375 20.3125 14.0625 8.203125 
z
" id="MS-Gothic-32"/>
       <path d="M 13.28125 22.265625 
Q 13.28125 14.453125 17.1875 10.546875 
Q 19.53125 8.203125 23.828125 8.203125 
Q 27.34375 8.203125 30.46875 11.328125 
Q 35.15625 16.015625 35.15625 26.953125 
Q 35.15625 37.109375 31.25 41.015625 
Q 28.90625 43.359375 25.78125 43.359375 
Q 18.75 43.359375 14.453125 35.15625 
L 6.640625 35.15625 
L 8.984375 76.953125 
L 42.578125 76.953125 
L 42.578125 69.53125 
L 16.40625 69.53125 
L 14.84375 44.140625 
Q 19.921875 50 27.734375 50 
Q 33.59375 50 37.890625 45.703125 
Q 44.140625 39.453125 44.140625 26.953125 
Q 44.140625 13.671875 36.71875 6.25 
Q 31.25 0.78125 23.4375 0.78125 
Q 15.234375 0.78125 10.546875 5.46875 
Q 4.6875 11.328125 4.296875 22.265625 
L 13.28125 22.265625 
z
" id="MS-Gothic-35"/>
      </defs>
      <g transform="translate(97.263636 266.695312)scale(0.1 -0.1)">
       <use xlink:href="#MS-Gothic-31"/>
       <use x="50" xlink:href="#MS-Gothic-2e"/>
       <use x="100" xlink:href="#MS-Gothic-32"/>
       <use x="150" xlink:href="#MS-Gothic-35"/>
      </g>
     </g>
    </g>
    <g id="xtick_3">
     <g id="line2d_3">
      <g>
       <use style="stroke:#000000;stroke-width:0.8;" x="145.309091" xlink:href="#mddd11246c8" y="252"/>
      </g>
     </g>
     <g id="text_3">
      <!-- 1.50 -->
      <g transform="translate(135.309091 266.695312)scale(0.1 -0.1)">
       <use xlink:href="#MS-Gothic-31"/>
       <use x="50" xlink:href="#MS-Gothic-2e"/>
       <use x="100" xlink:href="#MS-Gothic-35"/>
       <use x="150" xlink:href="#MS-Gothic-30"/>
      </g>
     </g>
    </g>
    <g id="xtick_4">
     <g id="line2d_4">
      <g>
       <use style="stroke:#000000;stroke-width:0.8;" x="183.354545" xlink:href="#mddd11246c8" y="252"/>
      </g>
     </g>
     <g id="text_4">
      <!-- 1.75 -->
      <defs>
       <path d="M 16.015625 0.78125 
L 35.15625 69.53125 
L 6.25 69.53125 
L 6.25 76.953125 
L 43.359375 76.953125 
L 43.359375 68.75 
L 25 0.78125 
z
" id="MS-Gothic-37"/>
      </defs>
      <g transform="translate(173.354545 266.695312)scale(0.1 -0.1)">
       <use xlink:href="#MS-Gothic-31"/>
       <use x="50" xlink:href="#MS-Gothic-2e"/>
       <use x="100" xlink:href="#MS-Gothic-37"/>
       <use x="150" xlink:href="#MS-Gothic-35"/>
      </g>
     </g>
    </g>
    <g id="xtick_5">
     <g id="line2d_5">
      <g>
       <use style="stroke:#000000;stroke-width:0.8;" x="221.4" xlink:href="#mddd11246c8" y="252"/>
      </g>
     </g>
     <g id="text_5">
      <!-- 2.00 -->
      <g transform="translate(211.4 266.695312)scale(0.1 -0.1)">
       <use xlink:href="#MS-Gothic-32"/>
       <use x="50" xlink:href="#MS-Gothic-2e"/>
       <use x="100" xlink:href="#MS-Gothic-30"/>
       <use x="150" xlink:href="#MS-Gothic-30"/>
      </g>
     </g>
    </g>
    <g id="xtick_6">
     <g id="line2d_6">
      <g>
       <use style="stroke:#000000;stroke-width:0.8;" x="259.445455" xlink:href="#mddd11246c8" y="252"/>
      </g>
     </g>
     <g id="text_6">
      <!-- 2.25 -->
      <g transform="translate(249.445455 266.695312)scale(0.1 -0.1)">
       <use xlink:href="#MS-Gothic-32"/>
       <use x="50" xlink:href="#MS-Gothic-2e"/>
       <use x="100" xlink:href="#MS-Gothic-32"/>
       <use x="150" xlink:href="#MS-Gothic-35"/>
      </g>
     </g>
    </g>
    <g id="xtick_7">
     <g id="line2d_7">
      <g>
       <use style="stroke:#000000;stroke-width:0.8;" x="297.490909" xlink:href="#mddd11246c8" y="252"/>
      </g>
     </g>
     <g id="text_7">
      <!-- 2.50 -->
      <g transform="translate(287.490909 266.695312)scale(0.1 -0.1)">
       <use xlink:href="#MS-Gothic-32"/>
       <use x="50" xlink:href="#MS-Gothic-2e"/>
       <use x="100" xlink:href="#MS-Gothic-35"/>
       <use x="150" xlink:href="#MS-Gothic-30"/>
      </g>
     </g>
    </g>
    <g id="xtick_8">
     <g id="line2d_8">
      <g>
       <use style="stroke:#000000;stroke-width:0.8;" x="335.536364" xlink:href="#mddd11246c8" y="252"/>
      </g>
     </g>
     <g id="text_8">
      <!-- 2.75 -->
      <g transform="translate(325.536364 266.695312)scale(0.1 -0.1)">
       <use xlink:href="#MS-Gothic-32"/>
       <use x="50" xlink:href="#MS-Gothic-2e"/>
       <use x="100" xlink:href="#MS-Gothic-37"/>
       <use x="150" xlink:href="#MS-Gothic-35"/>
      </g>
     </g>
    </g>
    <g id="xtick_9">
     <g id="line2d_9">
      <g>
       <use style="stroke:#000000;stroke-width:0.8;" x="373.581818" xlink:href="#mddd11246c8" y="252"/>
      </g>
     </g>
     <g id="text_9">
      <!-- 3.00 -->
      <defs>
       <path d="M 13.28125 23.4375 
Q 12.890625 14.84375 16.796875 10.9375 
Q 19.53125 8.203125 24.21875 8.203125 
Q 28.125 8.203125 31.640625 11.71875 
Q 35.15625 15.234375 35.15625 23.4375 
Q 35.15625 29.6875 30.859375 33.984375 
Q 27.734375 37.109375 21.484375 36.71875 
L 21.484375 43.359375 
Q 27.734375 43.75 30.859375 46.875 
Q 33.984375 50 33.984375 56.25 
Q 33.984375 64.0625 30.46875 67.578125 
Q 28.125 69.921875 24.609375 69.921875 
Q 21.09375 69.921875 18.75 67.578125 
Q 14.84375 63.671875 14.453125 55.859375 
L 5.859375 55.859375 
Q 6.25 66.015625 12.5 72.265625 
Q 17.1875 76.953125 24.609375 76.953125 
Q 32.421875 76.953125 37.109375 72.265625 
Q 42.578125 66.796875 42.578125 57.8125 
Q 42.578125 49.609375 38.28125 45.3125 
Q 34.375 41.40625 30.859375 40.234375 
Q 35.9375 38.671875 38.671875 35.9375 
Q 44.140625 30.46875 44.140625 22.65625 
Q 44.140625 12.5 37.890625 6.25 
Q 32.421875 0.78125 24.21875 0.78125 
Q 15.234375 0.78125 10.15625 5.859375 
Q 4.296875 11.71875 4.296875 23.4375 
L 13.28125 23.4375 
z
" id="MS-Gothic-33"/>
      </defs>
      <g transform="translate(363.581818 266.695312)scale(0.1 -0.1)">
       <use xlink:href="#MS-Gothic-33"/>
       <use x="50" xlink:href="#MS-Gothic-2e"/>
       <use x="100" xlink:href="#MS-Gothic-30"/>
       <use x="150" xlink:href="#MS-Gothic-30"/>
      </g>
     </g>
    </g>
   </g>
   <g id="matplotlib.axis_2">
    <g id="ytick_1">
     <g id="line2d_10">
      <defs>
       <path d="M 0 0 
L -3.5 0 
" id="m59f2d4f05a" style="stroke:#000000;stroke-width:0.8;"/>
      </defs>
      <g>
       <use style="stroke:#000000;stroke-width:0.8;" x="54" xlink:href="#m59f2d4f05a" y="242.116364"/>
      </g>
     </g>
     <g id="text_10">
      <!-- 2.0 -->
      <g transform="translate(32 245.96402)scale(0.1 -0.1)">
       <use xlink:href="#MS-Gothic-32"/>
       <use x="50" xlink:href="#MS-Gothic-2e"/>
       <use x="100" xlink:href="#MS-Gothic-30"/>
      </g>
     </g>
    </g>
    <g id="ytick_2">
     <g id="line2d_11">
      <g>
       <use style="stroke:#000000;stroke-width:0.8;" x="54" xlink:href="#m59f2d4f05a" y="217.407273"/>
      </g>
     </g>
     <g id="text_11">
      <!-- 2.5 -->
      <g transform="translate(32 221.254929)scale(0.1 -0.1)">
       <use xlink:href="#MS-Gothic-32"/>
       <use x="50" xlink:href="#MS-Gothic-2e"/>
       <use x="100" xlink:href="#MS-Gothic-35"/>
      </g>
     </g>
    </g>
    <g id="ytick_3">
     <g id="line2d_12">
      <g>
       <use style="stroke:#000000;stroke-width:0.8;" x="54" xlink:href="#m59f2d4f05a" y="192.698182"/>
      </g>
     </g>
     <g id="text_12">
      <!-- 3.0 -->
      <g transform="translate(32 196.545838)scale(0.1 -0.1)">
       <use xlink:href="#MS-Gothic-33"/>
       <use x="50" xlink:href="#MS-Gothic-2e"/>
       <use x="100" xlink:href="#MS-Gothic-30"/>
      </g>
     </g>
    </g>
    <g id="ytick_4">
     <g id="line2d_13">
      <g>
       <use style="stroke:#000000;stroke-width:0.8;" x="54" xlink:href="#m59f2d4f05a" y="167.989091"/>
      </g>
     </g>
     <g id="text_13">
      <!-- 3.5 -->
      <g transform="translate(32 171.836747)scale(0.1 -0.1)">
       <use xlink:href="#MS-Gothic-33"/>
       <use x="50" xlink:href="#MS-Gothic-2e"/>
       <use x="100" xlink:href="#MS-Gothic-35"/>
      </g>
     </g>
    </g>
    <g id="ytick_5">
     <g id="line2d_14">
      <g>
       <use style="stroke:#000000;stroke-width:0.8;" x="54" xlink:href="#m59f2d4f05a" y="143.28"/>
      </g>
     </g>
     <g id="text_14">
      <!-- 4.0 -->
      <defs>
       <path d="M 29.296875 0.78125 
L 29.296875 9.765625 
L 29.296875 18.75 
L 3.125 18.75 
L 3.125 26.171875 
L 29.296875 76.953125 
L 38.28125 76.953125 
L 38.28125 26.171875 
L 46.484375 26.171875 
L 46.484375 18.75 
L 38.28125 18.75 
L 38.28125 0.78125 
z
M 29.296875 26.171875 
L 29.296875 60.546875 
L 11.71875 26.171875 
z
" id="MS-Gothic-34"/>
      </defs>
      <g transform="translate(32 147.127656)scale(0.1 -0.1)">
       <use xlink:href="#MS-Gothic-34"/>
       <use x="50" xlink:href="#MS-Gothic-2e"/>
       <use x="100" xlink:href="#MS-Gothic-30"/>
      </g>
     </g>
    </g>
    <g id="ytick_6">
     <g id="line2d_15">
      <g>
       <use style="stroke:#000000;stroke-width:0.8;" x="54" xlink:href="#m59f2d4f05a" y="118.570909"/>
      </g>
     </g>
     <g id="text_15">
      <!-- 4.5 -->
      <g transform="translate(32 122.418565)scale(0.1 -0.1)">
       <use xlink:href="#MS-Gothic-34"/>
       <use x="50" xlink:href="#MS-Gothic-2e"/>
       <use x="100" xlink:href="#MS-Gothic-35"/>
      </g>
     </g>
    </g>
    <g id="ytick_7">
     <g id="line2d_16">
      <g>
       <use style="stroke:#000000;stroke-width:0.8;" x="54" xlink:href="#m59f2d4f05a" y="93.861818"/>
      </g>
     </g>
     <g id="text_16">
      <!-- 5.0 -->
      <g transform="translate(32 97.709474)scale(0.1 -0.1)">
       <use xlink:href="#MS-Gothic-35"/>
       <use x="50" xlink:href="#MS-Gothic-2e"/>
       <use x="100" xlink:href="#MS-Gothic-30"/>
      </g>
     </g>
    </g>
    <g id="ytick_8">
     <g id="line2d_17">
      <g>
       <use style="stroke:#000000;stroke-width:0.8;" x="54" xlink:href="#m59f2d4f05a" y="69.152727"/>
      </g>
     </g>
     <g id="text_17">
      <!-- 5.5 -->
      <g transform="translate(32 73.000384)scale(0.1 -0.1)">
       <use xlink:href="#MS-Gothic-35"/>
       <use x="50" xlink:href="#MS-Gothic-2e"/>
       <use x="100" xlink:href="#MS-Gothic-35"/>
      </g>
     </g>
    </g>
    <g id="ytick_9">
     <g id="line2d_18">
      <g>
       <use style="stroke:#000000;stroke-width:0.8;" x="54" xlink:href="#m59f2d4f05a" y="44.443636"/>
      </g>
     </g>
     <g id="text_18">
      <!-- 6.0 -->
      <defs>
       <path d="M 34.765625 59.375 
Q 34.765625 65.234375 32.03125 67.96875 
Q 30.46875 69.53125 28.125 69.53125 
Q 25 69.53125 22.65625 67.1875 
Q 16.015625 60.546875 14.453125 41.015625 
Q 19.921875 50 27.734375 50 
Q 33.59375 50 38.28125 45.3125 
Q 44.53125 39.0625 44.53125 26.171875 
Q 44.53125 12.109375 37.890625 5.46875 
Q 33.203125 0.78125 25.78125 0.78125 
Q 19.140625 0.78125 13.671875 6.25 
Q 5.46875 14.453125 5.46875 37.890625 
Q 5.46875 60.9375 16.796875 72.265625 
Q 21.484375 76.953125 28.515625 76.953125 
Q 34.375 76.953125 37.890625 73.4375 
Q 43.359375 67.96875 43.75 59.375 
L 34.765625 59.375 
z
M 26.171875 42.96875 
Q 22.65625 42.96875 19.921875 40.234375 
Q 15.234375 35.546875 15.234375 27.734375 
Q 15.234375 15.625 20.703125 10.15625 
Q 23.046875 7.8125 26.171875 7.8125 
Q 29.296875 7.8125 32.03125 10.546875 
Q 35.546875 14.0625 35.546875 26.171875 
Q 35.546875 36.71875 31.640625 40.625 
Q 29.296875 42.96875 26.171875 42.96875 
z
" id="MS-Gothic-36"/>
      </defs>
      <g transform="translate(32 48.291293)scale(0.1 -0.1)">
       <use xlink:href="#MS-Gothic-36"/>
       <use x="50" xlink:href="#MS-Gothic-2e"/>
       <use x="100" xlink:href="#MS-Gothic-30"/>
      </g>
     </g>
    </g>
   </g>
   <g id="line2d_19">
    <path clip-path="url(#p90dd9e4ed9)" d="M 69.218182 242.116364 
L 221.4 143.28 
L 373.581818 44.443636 
" style="fill:none;stroke:#1f77b4;stroke-linecap:square;stroke-width:1.5;"/>
   </g>
   <g id="patch_3">
    <path d="M 54 252 
L 54 34.56 
" style="fill:none;stroke:#000000;stroke-linecap:square;stroke-linejoin:miter;stroke-width:0.8;"/>
   </g>
   <g id="patch_4">
    <path d="M 388.8 252 
L 388.8 34.56 
" style="fill:none;stroke:#000000;stroke-linecap:square;stroke-linejoin:miter;stroke-width:0.8;"/>
   </g>
   <g id="patch_5">
    <path d="M 54 252 
L 388.8 252 
" style="fill:none;stroke:#000000;stroke-linecap:square;stroke-linejoin:miter;stroke-width:0.8;"/>
   </g>
   <g id="patch_6">
    <path d="M 54 34.56 
L 388.8 34.56 
" style="fill:none;stroke:#000000;stroke-linecap:square;stroke-linejoin:miter;stroke-width:0.8;"/>
   </g>
  </g>
 </g>
 <defs>
  <clipPath id="p90dd9e4ed9">
   <rect height="217.44" width="334.8" x="54" y="34.56"/>
  </clipPath>
 </defs>
</svg>
